<svg width="30" height="30" viewBox="0 0 30 30" fill="none" xmlns="http://www.w3.org/2000/svg">
<g clip-path="url(#clip0_1_23)">
<path d="M21.875 2.39575C20.4674 2.41765 19.0906 2.81057 17.8835 3.53484C16.6763 4.25911 15.6817 5.28909 15 6.52075C14.3183 5.28909 13.3237 4.25911 12.1166 3.53484C10.9094 2.81057 9.53257 2.41765 8.12501 2.39575C5.88119 2.49324 3.76714 3.47482 2.24474 5.12604C0.722333 6.77727 -0.0846793 8.96391 8.89879e-06 11.2083C8.89879e-06 16.892 5.98251 23.0995 11 27.3083C12.1203 28.2497 13.5367 28.7658 15 28.7658C16.4633 28.7658 17.8797 28.2497 19 27.3083C24.0175 23.0995 30 16.892 30 11.2083C30.0847 8.96391 29.2777 6.77727 27.7553 5.12604C26.2329 3.47482 24.1188 2.49324 21.875 2.39575ZM17.3938 25.3958C16.7237 25.96 15.8759 26.2694 15 26.2694C14.1241 26.2694 13.2763 25.96 12.6063 25.3958C6.18376 20.007 2.50001 14.837 2.50001 11.2083C2.41456 9.62665 2.95797 8.07541 4.01171 6.89288C5.06546 5.71034 6.54405 4.99244 8.12501 4.89575C9.70597 4.99244 11.1846 5.71034 12.2383 6.89288C13.2921 8.07541 13.8355 9.62665 13.75 11.2083C13.75 11.5398 13.8817 11.8577 14.1161 12.0921C14.3505 12.3266 14.6685 12.4583 15 12.4583C15.3315 12.4583 15.6495 12.3266 15.8839 12.0921C16.1183 11.8577 16.25 11.5398 16.25 11.2083C16.1646 9.62665 16.708 8.07541 17.7617 6.89288C18.8155 5.71034 20.2941 4.99244 21.875 4.89575C23.456 4.99244 24.9346 5.71034 25.9883 6.89288C27.042 8.07541 27.5855 9.62665 27.5 11.2083C27.5 14.837 23.8163 20.007 17.3938 25.3908V25.3958Z" fill="#374957"/>
</g>
<defs>
<clipPath id="clip0_1_23">
<rect width="30" height="30" fill="white"/>
</clipPath>
</defs>
</svg>
